<mxfile host="Electron" agent="Mozilla/5.0 (Macintosh; Intel Mac OS X 10_15_7) AppleWebKit/537.36 (KHTML, like Gecko) draw.io/24.7.17 Chrome/128.0.6613.36 Electron/32.0.1 Safari/537.36" version="24.7.17">
  <diagram name="Page-1" id="U4aVWm8Qzfw7dfoI3ZuB">
    <mxGraphModel dx="1273" dy="854" grid="1" gridSize="10" guides="1" tooltips="1" connect="1" arrows="1" fold="1" page="1" pageScale="1" pageWidth="1654" pageHeight="1169" math="0" shadow="0">
      <root>
        <mxCell id="0" />
        <mxCell id="1" parent="0" />
        <mxCell id="H5aGX0jRSi7wDKU2Dwph-2" value="CloudFront" style="sketch=0;points=[[0,0,0],[0.25,0,0],[0.5,0,0],[0.75,0,0],[1,0,0],[0,1,0],[0.25,1,0],[0.5,1,0],[0.75,1,0],[1,1,0],[0,0.25,0],[0,0.5,0],[0,0.75,0],[1,0.25,0],[1,0.5,0],[1,0.75,0]];outlineConnect=0;fontColor=#232F3E;fillColor=#8C4FFF;strokeColor=#ffffff;dashed=0;verticalLabelPosition=bottom;verticalAlign=top;align=center;html=1;fontSize=12;fontStyle=0;aspect=fixed;shape=mxgraph.aws4.resourceIcon;resIcon=mxgraph.aws4.cloudfront;" vertex="1" parent="1">
          <mxGeometry x="473" y="160" width="78" height="78" as="geometry" />
        </mxCell>
        <mxCell id="H5aGX0jRSi7wDKU2Dwph-5" value="Chatbot Lambda&amp;nbsp;&lt;div&gt;(with Function URL)&lt;/div&gt;" style="sketch=0;points=[[0,0,0],[0.25,0,0],[0.5,0,0],[0.75,0,0],[1,0,0],[0,1,0],[0.25,1,0],[0.5,1,0],[0.75,1,0],[1,1,0],[0,0.25,0],[0,0.5,0],[0,0.75,0],[1,0.25,0],[1,0.5,0],[1,0.75,0]];outlineConnect=0;fontColor=#232F3E;fillColor=#ED7100;strokeColor=#ffffff;dashed=0;verticalLabelPosition=bottom;verticalAlign=top;align=center;html=1;fontSize=12;fontStyle=0;aspect=fixed;shape=mxgraph.aws4.resourceIcon;resIcon=mxgraph.aws4.lambda;" vertex="1" parent="1">
          <mxGeometry x="473" y="277" width="78" height="78" as="geometry" />
        </mxCell>
        <mxCell id="H5aGX0jRSi7wDKU2Dwph-6" value="API Gateway&amp;nbsp;&lt;div&gt;(Rest)&lt;/div&gt;" style="sketch=0;points=[[0,0,0],[0.25,0,0],[0.5,0,0],[0.75,0,0],[1,0,0],[0,1,0],[0.25,1,0],[0.5,1,0],[0.75,1,0],[1,1,0],[0,0.25,0],[0,0.5,0],[0,0.75,0],[1,0.25,0],[1,0.5,0],[1,0.75,0]];outlineConnect=0;fontColor=#232F3E;fillColor=#E7157B;strokeColor=#ffffff;dashed=0;verticalLabelPosition=bottom;verticalAlign=top;align=center;html=1;fontSize=12;fontStyle=0;aspect=fixed;shape=mxgraph.aws4.resourceIcon;resIcon=mxgraph.aws4.api_gateway;" vertex="1" parent="1">
          <mxGeometry x="473" y="400" width="78" height="78" as="geometry" />
        </mxCell>
        <mxCell id="H5aGX0jRSi7wDKU2Dwph-8" value="Chatbot1 Lambda" style="sketch=0;points=[[0,0,0],[0.25,0,0],[0.5,0,0],[0.75,0,0],[1,0,0],[0,1,0],[0.25,1,0],[0.5,1,0],[0.75,1,0],[1,1,0],[0,0.25,0],[0,0.5,0],[0,0.75,0],[1,0.25,0],[1,0.5,0],[1,0.75,0]];outlineConnect=0;fontColor=#232F3E;fillColor=#ED7100;strokeColor=#ffffff;dashed=0;verticalLabelPosition=bottom;verticalAlign=top;align=center;html=1;fontSize=12;fontStyle=0;aspect=fixed;shape=mxgraph.aws4.resourceIcon;resIcon=mxgraph.aws4.lambda;" vertex="1" parent="1">
          <mxGeometry x="590" y="402" width="78" height="78" as="geometry" />
        </mxCell>
        <mxCell id="H5aGX0jRSi7wDKU2Dwph-11" value="API Gateway&amp;nbsp;&lt;div&gt;(Websocket)&lt;/div&gt;" style="sketch=0;points=[[0,0,0],[0.25,0,0],[0.5,0,0],[0.75,0,0],[1,0,0],[0,1,0],[0.25,1,0],[0.5,1,0],[0.75,1,0],[1,1,0],[0,0.25,0],[0,0.5,0],[0,0.75,0],[1,0.25,0],[1,0.5,0],[1,0.75,0]];outlineConnect=0;fontColor=#232F3E;fillColor=#E7157B;strokeColor=#ffffff;dashed=0;verticalLabelPosition=bottom;verticalAlign=top;align=center;html=1;fontSize=12;fontStyle=0;aspect=fixed;shape=mxgraph.aws4.resourceIcon;resIcon=mxgraph.aws4.api_gateway;" vertex="1" parent="1">
          <mxGeometry x="473" y="520" width="78" height="78" as="geometry" />
        </mxCell>
        <mxCell id="H5aGX0jRSi7wDKU2Dwph-12" value="Chatbot2 Lambda" style="sketch=0;points=[[0,0,0],[0.25,0,0],[0.5,0,0],[0.75,0,0],[1,0,0],[0,1,0],[0.25,1,0],[0.5,1,0],[0.75,1,0],[1,1,0],[0,0.25,0],[0,0.5,0],[0,0.75,0],[1,0.25,0],[1,0.5,0],[1,0.75,0]];outlineConnect=0;fontColor=#232F3E;fillColor=#ED7100;strokeColor=#ffffff;dashed=0;verticalLabelPosition=bottom;verticalAlign=top;align=center;html=1;fontSize=12;fontStyle=0;aspect=fixed;shape=mxgraph.aws4.resourceIcon;resIcon=mxgraph.aws4.lambda;" vertex="1" parent="1">
          <mxGeometry x="590" y="522" width="78" height="78" as="geometry" />
        </mxCell>
        <mxCell id="H5aGX0jRSi7wDKU2Dwph-13" value="User" style="sketch=0;aspect=fixed;pointerEvents=1;shadow=0;dashed=0;html=1;strokeColor=none;labelPosition=center;verticalLabelPosition=bottom;verticalAlign=top;align=center;fillColor=#00188D;shape=mxgraph.azure.user" vertex="1" parent="1">
          <mxGeometry x="130.5" y="348" width="47" height="50" as="geometry" />
        </mxCell>
        <mxCell id="H5aGX0jRSi7wDKU2Dwph-4" value="Cognito" style="sketch=0;points=[[0,0,0],[0.25,0,0],[0.5,0,0],[0.75,0,0],[1,0,0],[0,1,0],[0.25,1,0],[0.5,1,0],[0.75,1,0],[1,1,0],[0,0.25,0],[0,0.5,0],[0,0.75,0],[1,0.25,0],[1,0.5,0],[1,0.75,0]];outlineConnect=0;fontColor=#232F3E;fillColor=#DD344C;strokeColor=#ffffff;dashed=0;verticalLabelPosition=bottom;verticalAlign=top;align=center;html=1;fontSize=12;fontStyle=0;aspect=fixed;shape=mxgraph.aws4.resourceIcon;resIcon=mxgraph.aws4.cognito;" vertex="1" parent="1">
          <mxGeometry x="116" y="466" width="78" height="78" as="geometry" />
        </mxCell>
        <mxCell id="H5aGX0jRSi7wDKU2Dwph-16" value="Bedrock" style="sketch=0;points=[[0,0,0],[0.25,0,0],[0.5,0,0],[0.75,0,0],[1,0,0],[0,1,0],[0.25,1,0],[0.5,1,0],[0.75,1,0],[1,1,0],[0,0.25,0],[0,0.5,0],[0,0.75,0],[1,0.25,0],[1,0.5,0],[1,0.75,0]];outlineConnect=0;fontColor=#232F3E;fillColor=#01A88D;strokeColor=#ffffff;dashed=0;verticalLabelPosition=bottom;verticalAlign=top;align=center;html=1;fontSize=12;fontStyle=0;aspect=fixed;shape=mxgraph.aws4.resourceIcon;resIcon=mxgraph.aws4.bedrock;" vertex="1" parent="1">
          <mxGeometry x="730" y="404" width="78" height="78" as="geometry" />
        </mxCell>
        <mxCell id="H5aGX0jRSi7wDKU2Dwph-17" value="" style="endArrow=classic;html=1;rounded=0;entryX=0;entryY=0.5;entryDx=0;entryDy=0;entryPerimeter=0;" edge="1" parent="1">
          <mxGeometry width="50" height="50" relative="1" as="geometry">
            <mxPoint x="270" y="380" as="sourcePoint" />
            <mxPoint x="473" y="199" as="targetPoint" />
            <Array as="points">
              <mxPoint x="340" y="380" />
              <mxPoint x="340" y="199" />
            </Array>
          </mxGeometry>
        </mxCell>
        <mxCell id="H5aGX0jRSi7wDKU2Dwph-28" value="Frontend" style="edgeLabel;html=1;align=center;verticalAlign=middle;resizable=0;points=[];" vertex="1" connectable="0" parent="H5aGX0jRSi7wDKU2Dwph-17">
          <mxGeometry x="0.6094" y="2" relative="1" as="geometry">
            <mxPoint x="1" as="offset" />
          </mxGeometry>
        </mxCell>
        <mxCell id="H5aGX0jRSi7wDKU2Dwph-19" value="" style="endArrow=classic;html=1;rounded=0;entryX=0.5;entryY=0;entryDx=0;entryDy=0;entryPerimeter=0;" edge="1" parent="1" target="H5aGX0jRSi7wDKU2Dwph-16">
          <mxGeometry width="50" height="50" relative="1" as="geometry">
            <mxPoint x="551" y="320" as="sourcePoint" />
            <mxPoint x="601" y="270" as="targetPoint" />
            <Array as="points">
              <mxPoint x="769" y="320" />
            </Array>
          </mxGeometry>
        </mxCell>
        <mxCell id="H5aGX0jRSi7wDKU2Dwph-33" value="Converse API" style="edgeLabel;html=1;align=center;verticalAlign=middle;resizable=0;points=[];" vertex="1" connectable="0" parent="H5aGX0jRSi7wDKU2Dwph-19">
          <mxGeometry x="-0.1589" y="4" relative="1" as="geometry">
            <mxPoint y="-4" as="offset" />
          </mxGeometry>
        </mxCell>
        <mxCell id="H5aGX0jRSi7wDKU2Dwph-20" value="" style="endArrow=classic;html=1;rounded=0;" edge="1" parent="1">
          <mxGeometry width="50" height="50" relative="1" as="geometry">
            <mxPoint x="343" y="320" as="sourcePoint" />
            <mxPoint x="473" y="320" as="targetPoint" />
          </mxGeometry>
        </mxCell>
        <mxCell id="H5aGX0jRSi7wDKU2Dwph-29" value="Backend option 1" style="edgeLabel;html=1;align=center;verticalAlign=middle;resizable=0;points=[];" vertex="1" connectable="0" parent="H5aGX0jRSi7wDKU2Dwph-20">
          <mxGeometry x="-0.2462" y="-1" relative="1" as="geometry">
            <mxPoint x="10" y="-10" as="offset" />
          </mxGeometry>
        </mxCell>
        <mxCell id="H5aGX0jRSi7wDKU2Dwph-21" value="" style="endArrow=classic;html=1;rounded=0;" edge="1" parent="1">
          <mxGeometry width="50" height="50" relative="1" as="geometry">
            <mxPoint x="343" y="444" as="sourcePoint" />
            <mxPoint x="473" y="444" as="targetPoint" />
          </mxGeometry>
        </mxCell>
        <mxCell id="H5aGX0jRSi7wDKU2Dwph-30" value="Backend option 2" style="edgeLabel;html=1;align=center;verticalAlign=middle;resizable=0;points=[];" vertex="1" connectable="0" parent="H5aGX0jRSi7wDKU2Dwph-21">
          <mxGeometry x="-0.1385" y="-1" relative="1" as="geometry">
            <mxPoint x="2" y="-9" as="offset" />
          </mxGeometry>
        </mxCell>
        <mxCell id="H5aGX0jRSi7wDKU2Dwph-22" value="" style="endArrow=classic;html=1;rounded=0;" edge="1" parent="1">
          <mxGeometry width="50" height="50" relative="1" as="geometry">
            <mxPoint x="155" y="418" as="sourcePoint" />
            <mxPoint x="155" y="465" as="targetPoint" />
          </mxGeometry>
        </mxCell>
        <mxCell id="H5aGX0jRSi7wDKU2Dwph-32" value="Authentication" style="edgeLabel;html=1;align=center;verticalAlign=middle;resizable=0;points=[];" vertex="1" connectable="0" parent="H5aGX0jRSi7wDKU2Dwph-22">
          <mxGeometry x="-0.4468" relative="1" as="geometry">
            <mxPoint y="4" as="offset" />
          </mxGeometry>
        </mxCell>
        <mxCell id="H5aGX0jRSi7wDKU2Dwph-23" value="" style="endArrow=classic;html=1;rounded=0;" edge="1" parent="1">
          <mxGeometry width="50" height="50" relative="1" as="geometry">
            <mxPoint x="552" y="446" as="sourcePoint" />
            <mxPoint x="591" y="446" as="targetPoint" />
          </mxGeometry>
        </mxCell>
        <mxCell id="H5aGX0jRSi7wDKU2Dwph-24" value="" style="endArrow=classic;html=1;rounded=0;" edge="1" parent="1">
          <mxGeometry width="50" height="50" relative="1" as="geometry">
            <mxPoint x="551" y="560.5" as="sourcePoint" />
            <mxPoint x="590" y="560.5" as="targetPoint" />
          </mxGeometry>
        </mxCell>
        <mxCell id="H5aGX0jRSi7wDKU2Dwph-26" value="" style="endArrow=classic;html=1;rounded=0;" edge="1" parent="1">
          <mxGeometry width="50" height="50" relative="1" as="geometry">
            <mxPoint x="669" y="450" as="sourcePoint" />
            <mxPoint x="730" y="450" as="targetPoint" />
          </mxGeometry>
        </mxCell>
        <mxCell id="H5aGX0jRSi7wDKU2Dwph-27" value="" style="endArrow=classic;html=1;rounded=0;" edge="1" parent="1">
          <mxGeometry width="50" height="50" relative="1" as="geometry">
            <mxPoint x="668" y="563" as="sourcePoint" />
            <mxPoint x="769" y="483" as="targetPoint" />
            <Array as="points">
              <mxPoint x="769" y="563" />
            </Array>
          </mxGeometry>
        </mxCell>
        <mxCell id="H5aGX0jRSi7wDKU2Dwph-34" value="Converse&lt;div&gt;&amp;nbsp;API&lt;/div&gt;" style="edgeLabel;html=1;align=center;verticalAlign=middle;resizable=0;points=[];" vertex="1" connectable="0" parent="1">
          <mxGeometry x="700" y="442" as="geometry">
            <mxPoint x="-4" y="-9" as="offset" />
          </mxGeometry>
        </mxCell>
        <mxCell id="H5aGX0jRSi7wDKU2Dwph-35" value="Converse API" style="edgeLabel;html=1;align=center;verticalAlign=middle;resizable=0;points=[];" vertex="1" connectable="0" parent="1">
          <mxGeometry x="689" y="348" as="geometry">
            <mxPoint x="28" y="204" as="offset" />
          </mxGeometry>
        </mxCell>
        <mxCell id="H5aGX0jRSi7wDKU2Dwph-40" value="Web site" style="sketch=0;pointerEvents=1;shadow=0;dashed=0;html=1;strokeColor=none;fillColor=#505050;labelPosition=center;verticalLabelPosition=bottom;verticalAlign=top;outlineConnect=0;align=center;shape=mxgraph.office.concepts.web_page;" vertex="1" parent="1">
          <mxGeometry x="250" y="332" width="50" height="54" as="geometry" />
        </mxCell>
        <mxCell id="H5aGX0jRSi7wDKU2Dwph-18" value="" style="endArrow=classic;html=1;rounded=0;entryX=0;entryY=0.5;entryDx=0;entryDy=0;entryPerimeter=0;" edge="1" parent="1">
          <mxGeometry width="50" height="50" relative="1" as="geometry">
            <mxPoint x="180" y="380" as="sourcePoint" />
            <mxPoint x="473" y="559" as="targetPoint" />
            <Array as="points">
              <mxPoint x="340" y="380" />
              <mxPoint x="340" y="559" />
            </Array>
          </mxGeometry>
        </mxCell>
        <mxCell id="H5aGX0jRSi7wDKU2Dwph-31" value="Backend option 3" style="edgeLabel;html=1;align=center;verticalAlign=middle;resizable=0;points=[];" vertex="1" connectable="0" parent="H5aGX0jRSi7wDKU2Dwph-18">
          <mxGeometry x="0.5131" y="-1" relative="1" as="geometry">
            <mxPoint x="42" y="-11" as="offset" />
          </mxGeometry>
        </mxCell>
      </root>
    </mxGraphModel>
  </diagram>
</mxfile>
